# xmcd
#
# Track frame offsets:
# 150
# 20727
# 42539
# 61733
# 73354
#
# Disc length: 1428 seconds
#
#
# Revision: 0
# Processed by: cddbd v1.5.1PL0 Copyright (c) Steve Scherf et al.
# Submitted via: FreeRIP 2.942 
#
DISCID=48059205
DTITLE=One Fell Swoop - One Fell Swoop
DYEAR=1996
DGENRE=Blues
TTITLE0=Baby Blues
TTITLE1=Fences
TTITLE2=Flesh and Blood
TTITLE3=Edge Of The World
TTITLE4=$500 Funeral
EXTD=
EXTT0=
EXTT1=
EXTT2=
EXTT3=
EXTT4=
PLAYORDER=
